<svg width="27" height="24" viewBox="0 0 27 24" fill="none" xmlns="http://www.w3.org/2000/svg">
<path fill-rule="evenodd" clip-rule="evenodd" d="M20.9092 16.2941V10.563V7.70541C20.9092 6.21314 19.6366 5 18.0718 5H9.06608C7.50127 5 6.22916 6.21314 6.22916 7.70541V10.563V16.2941C6.22916 17.7869 7.50127 19 9.06608 19H18.0723C19.6366 19 20.9092 17.7869 20.9092 16.2941ZM16.1534 11.9993C16.1534 13.3582 14.9926 14.4632 13.5687 14.4632C12.1442 14.4632 10.9844 13.3577 10.9859 11.9988C10.9865 11.4623 11.1689 10.9671 11.4746 10.5625C11.9451 9.94182 12.7078 9.53529 13.5702 9.53529C14.4322 9.53529 15.1953 9.94231 15.6648 10.563C15.9694 10.9676 16.1534 11.4628 16.1534 11.9993ZM19.2108 8.98499V6.91961V6.61224L18.8869 6.61323L16.7222 6.61967L16.7305 8.99292L19.2108 8.98499ZM13.5692 15.8281C15.7833 15.8281 17.5841 14.1097 17.5841 11.9993C17.5841 11.4916 17.4765 11.0062 17.2857 10.563H19.478V16.2941C19.478 17.0348 18.8464 17.6347 18.0712 17.6347H9.06556C8.28939 17.6347 7.65879 17.0348 7.65879 16.2941V10.563H9.85004C9.66081 11.0062 9.55475 11.4916 9.55475 11.9993C9.55475 14.1097 11.3551 15.8281 13.5692 15.8281Z" fill="black"/>
<mask id="mask0_6_156" style="mask-type:alpha" maskUnits="userSpaceOnUse" x="6" y="5" width="15" height="14">
<path fill-rule="evenodd" clip-rule="evenodd" d="M20.9092 16.2941V10.563V7.70541C20.9092 6.21314 19.6366 5 18.0718 5H9.06608C7.50127 5 6.22916 6.21314 6.22916 7.70541V10.563V16.2941C6.22916 17.7869 7.50127 19 9.06608 19H18.0723C19.6366 19 20.9092 17.7869 20.9092 16.2941ZM16.1534 11.9993C16.1534 13.3582 14.9926 14.4632 13.5687 14.4632C12.1442 14.4632 10.9844 13.3577 10.9859 11.9988C10.9865 11.4623 11.1689 10.9671 11.4746 10.5625C11.9451 9.94182 12.7078 9.53529 13.5702 9.53529C14.4322 9.53529 15.1953 9.94231 15.6648 10.563C15.9694 10.9676 16.1534 11.4628 16.1534 11.9993ZM19.2108 8.98499V6.91961V6.61224L18.8869 6.61323L16.7222 6.61967L16.7305 8.99292L19.2108 8.98499ZM13.5692 15.8281C15.7833 15.8281 17.5841 14.1097 17.5841 11.9993C17.5841 11.4916 17.4765 11.0062 17.2857 10.563H19.478V16.2941C19.478 17.0348 18.8464 17.6347 18.0712 17.6347H9.06556C8.28939 17.6347 7.65879 17.0348 7.65879 16.2941V10.563H9.85004C9.66081 11.0062 9.55475 11.4916 9.55475 11.9993C9.55475 14.1097 11.3551 15.8281 13.5692 15.8281Z" fill="white"/>
</mask>
<g mask="url(#mask0_6_156)">
<rect x="0.986099" width="25.1667" height="24" fill="#424B5A"/>
</g>
</svg>
 