<svg width="26" height="24" viewBox="0 0 26 24" fill="none" xmlns="http://www.w3.org/2000/svg">
<path d="M16.1328 12.0056H14.0751C14.0751 15.1408 14.0751 19 14.0751 19H11.0258C11.0258 19 11.0258 15.1782 11.0258 12.0056H9.57639V9.53354H11.0258V7.93458C11.0258 6.78942 11.5965 5 14.1031 5L16.3626 5.00826V7.40791C16.3626 7.40791 14.9896 7.40791 14.7226 7.40791C14.4556 7.40791 14.0761 7.53521 14.0761 8.08131V9.53403H16.3993L16.1328 12.0056Z" fill="#C2D1D9"/>
<mask id="mask0_6_157" style="mask-type:alpha" maskUnits="userSpaceOnUse" x="9" y="5" width="8" height="14">
<path d="M16.1328 12.0056H14.0751C14.0751 15.1408 14.0751 19 14.0751 19H11.0258C11.0258 19 11.0258 15.1782 11.0258 12.0056H9.57639V9.53354H11.0258V7.93458C11.0258 6.78942 11.5965 5 14.1031 5L16.3626 5.00826V7.40791C16.3626 7.40791 14.9896 7.40791 14.7226 7.40791C14.4556 7.40791 14.0761 7.53521 14.0761 8.08131V9.53403H16.3993L16.1328 12.0056Z" fill="white"/>
</mask>
<g mask="url(#mask0_6_157)">
<rect x="0.138885" width="25.1667" height="24" fill="#424B5A"/>
</g>
</svg>
