<svg width="23" height="20" viewBox="0 0 23 20" fill="none" xmlns="http://www.w3.org/2000/svg">
<path d="M22.9912 1.95021C22.9913 1.77357 22.9446 1.60007 22.8558 1.44735C22.7671 1.29464 22.6394 1.16817 22.4859 1.08084C22.3324 0.993502 22.1584 0.948416 21.9818 0.95017C21.8052 0.951925 21.6322 1.00046 21.4804 1.09083C20.8951 1.43921 20.265 1.70601 19.6074 1.88383C18.6684 1.07806 17.4708 0.637129 16.2334 0.641636C14.876 0.643198 13.5723 1.17223 12.5976 2.11702C11.623 3.06181 11.0536 4.3484 11.0098 5.70512C8.33378 5.27838 5.90843 3.88164 4.19625 1.78126C4.09308 1.65609 3.96133 1.55757 3.81211 1.494C3.66288 1.43043 3.50056 1.40368 3.33883 1.41601C3.17719 1.42932 3.02122 1.4818 2.88442 1.56892C2.74762 1.65603 2.63409 1.77516 2.55367 1.91601C2.1412 2.63582 1.9043 3.44276 1.86222 4.27131C1.82014 5.09986 1.97406 5.92666 2.31148 6.68456L2.30953 6.68651C2.15788 6.77991 2.03272 6.91066 1.94603 7.06625C1.85935 7.22185 1.81403 7.39708 1.81441 7.57519C1.81257 7.72211 1.82139 7.86898 1.84078 8.01464C1.94292 9.2729 2.50056 10.4507 3.40914 11.3271C3.3475 11.4446 3.30988 11.5731 3.29848 11.7052C3.28708 11.8373 3.30212 11.9704 3.34273 12.0967C3.73884 13.3308 4.58123 14.3727 5.70504 15.0185C4.56328 15.46 3.33046 15.614 2.11519 15.4668C1.89026 15.4386 1.66242 15.4876 1.46904 15.6059C1.27566 15.7242 1.12822 15.9047 1.0509 16.1178C0.973592 16.3309 0.970999 16.5639 1.04355 16.7787C1.1161 16.9935 1.25949 17.1772 1.45019 17.2998C3.54028 18.646 5.97387 19.3617 8.45996 19.3613C11.2792 19.393 14.0299 18.4921 16.2842 16.7988C18.5385 15.1054 20.1699 12.7145 20.9248 9.99801C21.2778 8.81464 21.4581 7.58648 21.46 6.35157C21.46 6.28614 21.46 6.21876 21.459 6.15138C21.9811 5.58831 22.3855 4.92668 22.6486 4.20527C22.9117 3.48387 23.0282 2.7172 22.9912 1.95021V1.95021ZM19.6845 5.16212C19.5194 5.35746 19.4358 5.60891 19.4511 5.86427C19.4609 6.02927 19.4599 6.19527 19.4599 6.35157C19.4579 7.39511 19.3049 8.43287 19.0058 9.43263C18.3893 11.744 17.015 13.7817 15.1029 15.2192C13.1908 16.6568 10.8516 17.4111 8.45996 17.3613C7.60084 17.3616 6.74468 17.2606 5.90918 17.0606C6.97459 16.7172 7.97077 16.1879 8.85156 15.4971C9.01378 15.3693 9.13251 15.1945 9.19145 14.9967C9.25038 14.7988 9.24664 14.5875 9.18073 14.3918C9.11483 14.1962 8.98999 14.0257 8.82334 13.9038C8.65669 13.7819 8.4564 13.7145 8.24996 13.7109C7.41879 13.698 6.62509 13.363 6.03609 12.7764C6.18551 12.7481 6.33395 12.7129 6.48141 12.6709C6.69742 12.6094 6.88645 12.477 7.01807 12.295C7.14969 12.1131 7.21623 11.8921 7.20698 11.6677C7.19773 11.4433 7.11324 11.2285 6.96709 11.058C6.82095 10.8874 6.62167 10.7711 6.40133 10.7275C5.91887 10.6323 5.46487 10.427 5.07464 10.1277C4.68441 9.82845 4.36845 9.44321 4.15133 9.00196C4.33206 9.02662 4.51394 9.04194 4.69625 9.04786C4.91283 9.05113 5.12484 8.98543 5.30162 8.86026C5.47841 8.73509 5.6108 8.55694 5.67965 8.35157C5.74563 8.14433 5.74223 7.92123 5.66998 7.7161C5.59772 7.51096 5.46055 7.33499 5.27926 7.21485C4.83941 6.92182 4.4791 6.52427 4.23061 6.0578C3.98213 5.59134 3.85322 5.07052 3.85543 4.54201C3.85543 4.47561 3.85738 4.4092 3.86129 4.34377C6.10255 6.43402 9.00961 7.66621 12.0703 7.82326C12.2248 7.82934 12.3786 7.80024 12.5202 7.73816C12.6618 7.67607 12.7875 7.58262 12.8877 7.46486C12.9869 7.34596 13.0571 7.20566 13.0928 7.05501C13.1286 6.90437 13.1289 6.74748 13.0937 6.5967C13.0365 6.35806 13.0073 6.11357 13.0068 5.86818C13.0077 5.01271 13.3479 4.19254 13.9528 3.58764C14.5577 2.98274 15.3779 2.64251 16.2334 2.64161C16.6735 2.64043 17.1091 2.7305 17.5127 2.90615C17.9162 3.0818 18.279 3.3392 18.5781 3.66212C18.6934 3.7862 18.8386 3.87871 18.9998 3.93085C19.161 3.98299 19.3328 3.99303 19.499 3.96001C19.9097 3.88006 20.3146 3.7724 20.7109 3.63775C20.4406 4.19072 20.0952 4.70369 19.6845 5.16212V5.16212Z" fill="#3D5A80"/>
</svg>
