<svg width="20" height="21" viewBox="0 0 20 21" fill="none" xmlns="http://www.w3.org/2000/svg">
<path d="M14.6 13C14.4 12.9 13.1 12.3 12.9 12.2C12.7 12.1 12.5 12.1 12.3 12.3C12.1 12.5 11.7 13.1 11.5 13.3C11.4 13.5 11.2 13.5 11 13.4C10.3 13.1 9.6 12.7 9 12.2C8.5 11.7 8 11.1 7.6 10.5C7.5 10.3 7.6 10.1 7.7 10C7.8 9.90001 7.9 9.70001 8.1 9.60001C8.2 9.50001 8.3 9.30001 8.3 9.20001C8.4 9.10001 8.4 8.90001 8.3 8.80001C8.2 8.70001 7.7 7.50001 7.5 7.00001C7.4 6.30001 7.2 6.30001 7 6.30001C6.9 6.30001 6.7 6.30001 6.5 6.30001C6.3 6.30001 6 6.50001 5.9 6.60001C5.3 7.20001 5 7.90001 5 8.70001C5.1 9.60001 5.4 10.5 6 11.3C7.1 12.9 8.5 14.2 10.2 15C10.7 15.2 11.1 15.4 11.6 15.5C12.1 15.7 12.6 15.7 13.2 15.6C13.9 15.5 14.5 15 14.9 14.4C15.1 14 15.1 13.6 15 13.2C15 13.2 14.8 13.1 14.6 13ZM17.1 3.90001C13.2 6.19888e-06 6.9 6.19888e-06 3 3.90001C-0.2 7.10001 -0.8 12 1.4 15.9L0 21L5.3 19.6C6.8 20.4 8.4 20.8 10 20.8C15.5 20.8 19.9 16.4 19.9 10.9C20 8.30001 18.9 5.80001 17.1 3.90001ZM14.4 17.9C13.1 18.7 11.6 19.2 10 19.2C8.5 19.2 7.1 18.8 5.8 18.1L5.5 17.9L2.4 18.7L3.2 15.7L3 15.4C0.6 11.4 1.8 6.40001 5.7 3.90001C9.6 1.40001 14.6 2.70001 17 6.50001C19.4 10.4 18.3 15.5 14.4 17.9Z" fill="#3D5A80"/>
</svg>
