<svg width="26" height="24" viewBox="0 0 26 24" fill="none" xmlns="http://www.w3.org/2000/svg">
<path fill-rule="evenodd" clip-rule="evenodd" d="M19.6989 6.49288L19.6599 6.46808C18.8536 5.73634 17.9042 5.38907 16.8118 5.43868L16.7727 5.36426L16.7988 5.35186C17.7872 5.14102 18.3724 4.91778 18.5545 4.66973C18.6065 4.47129 18.5415 4.35967 18.3204 4.33486C17.8262 4.39688 17.358 4.4961 16.9548 4.65733C17.475 4.33486 17.6701 4.11162 17.5531 4C17.0459 4.0124 16.4866 4.26045 15.9144 4.75655C16.1225 4.40928 16.2135 4.21084 16.1615 4.18604C15.8754 4.35967 15.6413 4.55811 15.4332 4.76895C14.991 5.24024 14.6399 5.67432 14.3668 6.0712L14.3538 6.09601C13.6645 7.17501 13.1703 8.25402 12.8842 9.35784L12.7801 9.44465L12.7541 9.45706C12.3379 8.96096 11.8307 8.53928 11.2325 8.20441C10.5302 7.75793 9.69786 7.34865 8.73547 6.93937C7.69505 6.41847 6.62861 5.99679 5.56218 5.66192C5.54917 6.81535 6.14742 7.72072 7.30489 8.39045V8.40285C6.90172 8.40285 6.49856 8.46486 6.1084 8.57649C6.18643 9.64309 6.97976 10.3748 8.47536 10.7717L8.46236 10.7965C7.87712 10.7593 7.39592 10.9577 7.01877 11.367C7.51297 12.2848 8.38433 12.7189 9.64584 12.6941C9.39874 12.8181 9.20366 12.9421 9.07361 13.091C8.83951 13.3266 8.76148 13.5995 8.83951 13.9095C9.11262 14.3808 9.59382 14.5917 10.3091 14.5544L10.3481 14.6041L10.3351 14.6289C9.09962 15.8443 7.60401 16.39 5.8613 16.2784L5.83529 16.2908C4.76885 16.2784 3.62439 15.7947 2.38889 14.8273C3.62439 16.5264 5.27606 17.7543 7.31789 18.5356C9.64584 19.2674 11.9868 19.3294 14.3147 18.6968H14.3538C16.6167 18.0767 18.5285 16.7869 20.1151 14.8521C20.8434 13.8475 21.2986 12.8801 21.4807 11.9499C22.6641 11.9871 23.5095 11.6647 24.0427 10.9701L24.0297 10.9453C23.6265 11.0818 22.8592 11.0446 21.7278 10.8213V10.6973C22.9763 10.5609 23.7176 10.1764 23.9517 9.54387C23.0803 9.86634 22.222 9.87874 21.3766 9.56868C21.2206 8.45246 20.6613 7.42306 19.6989 6.49288" fill="#C2D1D9"/>
<mask id="mask0_6_158" style="mask-type:alpha" maskUnits="userSpaceOnUse" x="2" y="4" width="23" height="16">
<path fill-rule="evenodd" clip-rule="evenodd" d="M19.6989 6.49288L19.6599 6.46808C18.8536 5.73634 17.9042 5.38907 16.8118 5.43868L16.7727 5.36426L16.7988 5.35186C17.7872 5.14102 18.3724 4.91778 18.5545 4.66973C18.6065 4.47129 18.5415 4.35967 18.3204 4.33486C17.8262 4.39688 17.358 4.4961 16.9548 4.65733C17.475 4.33486 17.6701 4.11162 17.5531 4C17.0459 4.0124 16.4866 4.26045 15.9144 4.75655C16.1225 4.40928 16.2135 4.21084 16.1615 4.18604C15.8754 4.35967 15.6413 4.55811 15.4332 4.76895C14.991 5.24024 14.6399 5.67432 14.3668 6.0712L14.3538 6.09601C13.6645 7.17501 13.1703 8.25402 12.8842 9.35784L12.7801 9.44465L12.7541 9.45706C12.3379 8.96096 11.8307 8.53928 11.2325 8.20441C10.5302 7.75793 9.69786 7.34865 8.73547 6.93937C7.69505 6.41847 6.62861 5.99679 5.56218 5.66192C5.54917 6.81535 6.14742 7.72072 7.30489 8.39045V8.40285C6.90172 8.40285 6.49856 8.46486 6.1084 8.57649C6.18643 9.64309 6.97976 10.3748 8.47536 10.7717L8.46236 10.7965C7.87712 10.7593 7.39592 10.9577 7.01877 11.367C7.51297 12.2848 8.38433 12.7189 9.64584 12.6941C9.39874 12.8181 9.20366 12.9421 9.07361 13.091C8.83951 13.3266 8.76148 13.5995 8.83951 13.9095C9.11262 14.3808 9.59382 14.5917 10.3091 14.5544L10.3481 14.6041L10.3351 14.6289C9.09962 15.8443 7.60401 16.39 5.8613 16.2784L5.83529 16.2908C4.76885 16.2784 3.62439 15.7947 2.38889 14.8273C3.62439 16.5264 5.27606 17.7543 7.31789 18.5356C9.64584 19.2674 11.9868 19.3294 14.3147 18.6968H14.3538C16.6167 18.0767 18.5285 16.7869 20.1151 14.8521C20.8434 13.8475 21.2986 12.8801 21.4807 11.9499C22.6641 11.9871 23.5095 11.6647 24.0427 10.9701L24.0297 10.9453C23.6265 11.0818 22.8592 11.0446 21.7278 10.8213V10.6973C22.9763 10.5609 23.7176 10.1764 23.9517 9.54387C23.0803 9.86634 22.222 9.87874 21.3766 9.56868C21.2206 8.45246 20.6613 7.42306 19.6989 6.49288" fill="white"/>
</mask>
<g mask="url(#mask0_6_158)">
<rect x="0.291656" width="25.1667" height="24" fill="#424B5A"/>
</g>
</svg>
