<svg width="21" height="23" viewBox="0 0 21 23" fill="none" xmlns="http://www.w3.org/2000/svg">
<path d="M18.4692 15.4339L19.7675 15.8396V14.4794V12.7397V12.1855L19.2975 11.8917L12.8087 7.83619V3.60625C12.8087 2.33199 11.7782 1.30147 10.5039 1.30147C9.22964 1.30147 8.19912 2.33198 8.19912 3.60625V7.83619L1.7103 11.8917L1.2403 12.1855V12.7397V14.4794V15.8396L2.53857 15.4339L8.19912 13.665V16.589L6.85941 17.5937L6.45941 17.8937V18.3937V19.6985V21.0243L7.73413 20.66L10.5039 19.8687L13.2737 20.66L14.5484 21.0243V19.6985V18.3937V17.8937L14.1484 17.5937L12.8087 16.589V13.665L18.4692 15.4339Z" fill="white" stroke="black" stroke-width="2"/>
</svg>
