<svg width="15" height="22" viewBox="0 0 15 22" fill="none" xmlns="http://www.w3.org/2000/svg">
<path d="M13.0039 9L10.0039 10.5L6.00391 7.5L5.00391 13L8.50391 16L9.00391 20.5M13.0039 7.5V20.5M5.00391 16L3.00391 20.5M3.50391 7.5C2.00391 8.5 1.00391 11 1.00391 11L3.00391 12M7.00391 5.5C7.53434 5.5 8.04305 5.28929 8.41812 4.91421C8.79319 4.53914 9.00391 4.03043 9.00391 3.5C9.00391 2.96957 8.79319 2.46086 8.41812 2.08579C8.04305 1.71071 7.53434 1.5 7.00391 1.5C6.47347 1.5 5.96477 1.71071 5.58969 2.08579C5.21462 2.46086 5.00391 2.96957 5.00391 3.5C5.00391 4.03043 5.21462 4.53914 5.58969 4.91421C5.96477 5.28929 6.47347 5.5 7.00391 5.5Z" stroke="black" stroke-width="2" stroke-linecap="round" stroke-linejoin="round"/>
</svg>
