
<svg width="21" height="18" viewBox="0 0 21 18" fill="none" xmlns="http://www.w3.org/2000/svg">
<path d="M20.6706 18H0.670563V16H1.67056V1C1.67056 0.734784 1.77592 0.48043 1.96346 0.292893C2.15099 0.105357 2.40535 0 2.67056 0H16.6706C16.9358 0 17.1901 0.105357 17.3777 0.292893C17.5652 0.48043 17.6706 0.734784 17.6706 1V6H19.6706V16H20.6706V18ZM15.6706 16H17.6706V8H11.6706V16H13.6706V10H15.6706V16ZM15.6706 6V2H3.67056V16H9.67056V6H15.6706ZM5.67056 8H7.67056V10H5.67056V8ZM5.67056 12H7.67056V14H5.67056V12ZM5.67056 4H7.67056V6H5.67056V4Z" fill="black"/>
</svg>
