<svg width="20" height="20" viewBox="0 0 20 20" fill="none" xmlns="http://www.w3.org/2000/svg">
<path d="M19.2875 6.77578L13.3367 5.91093L10.6765 0.517965C10.6039 0.370309 10.4844 0.250778 10.3367 0.178121C9.96639 -0.00469103 9.51639 0.147653 9.33123 0.517965L6.67108 5.91093L0.720295 6.77578C0.556233 6.79922 0.406233 6.87656 0.291389 6.99375C0.152549 7.13645 0.0760424 7.32843 0.0786792 7.52752C0.0813161 7.7266 0.162881 7.91649 0.305452 8.05547L4.61092 12.2531L3.59373 18.1805C3.56988 18.3183 3.58514 18.4602 3.63778 18.5898C3.69042 18.7195 3.77833 18.8318 3.89155 18.914C4.00477 18.9962 4.13876 19.0451 4.27834 19.055C4.41792 19.065 4.55749 19.0356 4.68123 18.9703L10.0039 16.1719L15.3265 18.9703C15.4719 19.0477 15.6406 19.0734 15.8023 19.0453C16.2101 18.975 16.4844 18.5883 16.414 18.1805L15.3969 12.2531L19.7023 8.05547C19.8195 7.94062 19.8969 7.79062 19.9203 7.62656C19.9836 7.2164 19.6976 6.83672 19.2875 6.77578Z" fill="black"/>
</svg>
